<?xml version="1.0" standalone="no"?>
<!DOCTYPE svg PUBLIC "-//W3C//DTD SVG 20010904//EN"
 "http://www.w3.org/TR/2001/REC-SVG-20010904/DTD/svg10.dtd">
<svg version="1.0" xmlns="http://www.w3.org/2000/svg"
 width="400.000000pt" height="400.000000pt" viewBox="0 0 400.000000 400.000000"
 preserveAspectRatio="xMidYMid meet">

<g transform="translate(0.000000,400.000000) scale(0.100000,-0.100000)"
fill="#000000" stroke="none">
<path d="M2130 3663 c-30 -24 -80 -57 -110 -74 -53 -31 -160 -72 -167 -65 -2
2 18 21 44 42 51 41 67 57 84 88 10 17 8 16 -20 -3 -17 -13 -86 -41 -154 -62
-67 -22 -126 -44 -131 -49 -28 -28 -36 12 -10 48 9 13 34 37 57 53 49 35 30
39 -28 5 -48 -29 -88 -83 -106 -144 -11 -40 -38 -55 -31 -18 2 9 1 16 -1 16
-8 0 -104 -155 -117 -188 -11 -28 -15 -31 -22 -18 -11 19 -2 68 20 111 8 17
42 56 75 88 l59 57 -34 0 c-55 0 -132 -27 -180 -65 -51 -39 -86 -100 -97 -172
l-7 -48 -20 32 c-10 18 -22 33 -25 33 -8 0 -18 -37 -20 -70 -1 -24 -1 -24 -14
5 l-13 30 -11 -28 c-6 -16 -11 -33 -11 -39 0 -6 -7 -5 -16 3 -12 10 -15 24
-10 56 3 24 4 43 1 43 -13 0 -36 -67 -34 -99 2 -20 -1 -43 -6 -51 -5 -8 -9
-46 -8 -83 l2 -68 -30 6 -30 7 15 -37 c20 -46 20 -46 0 -38 -14 5 -14 2 0 -31
l15 -36 -27 0 c-25 0 -23 -3 23 -33 l50 -32 -32 -3 c-39 -4 -39 -6 -13 -39 29
-37 26 -51 -25 -123 -38 -53 -45 -72 -45 -110 l0 -46 -89 -57 c-48 -31 -95
-57 -103 -57 -17 0 -48 -31 -48 -47 0 -6 -16 -35 -35 -64 l-36 -52 17 -47 c16
-44 16 -51 -1 -119 -9 -40 -14 -75 -10 -79 4 -4 10 -1 12 6 10 28 23 9 23 -35
0 -32 9 -65 27 -100 25 -50 25 -54 10 -71 -23 -25 -21 -31 5 -24 l22 5 -22
-35 c-29 -47 -28 -53 7 -29 16 12 32 21 36 21 4 0 4 -37 0 -82 -7 -72 -6 -81
7 -70 18 15 28 6 28 -25 0 -23 19 -33 21 -10 1 14 28 -42 29 -60 0 -6 -11 -25
-25 -41 -36 -43 -31 -47 20 -18 25 15 45 23 44 19 0 -4 -31 -34 -69 -66 -91
-78 -122 -124 -127 -190 -3 -44 -2 -48 8 -27 35 81 54 110 93 143 l43 36 -43
-64 c-50 -75 -63 -134 -43 -192 l13 -38 6 60 c5 49 23 105 33 105 1 0 2 -28 3
-62 0 -35 4 -91 8 -124 8 -55 6 -64 -11 -81 -11 -11 -27 -23 -34 -25 -8 -3
-12 -8 -9 -11 3 -3 23 1 45 8 21 8 41 13 42 11 2 -2 -4 -22 -12 -46 -16 -46
-21 -145 -6 -136 4 3 11 20 15 37 7 35 65 99 90 99 20 0 20 -8 1 -52 -21 -53
-29 -156 -15 -207 10 -39 65 -109 77 -98 2 3 -6 22 -19 43 -31 53 -31 142 0
201 12 24 27 43 33 43 6 0 8 -4 5 -9 -4 -5 -2 -42 4 -83 16 -117 74 -222 180
-330 88 -90 140 -121 77 -47 -48 56 -102 161 -120 234 -21 84 -29 172 -17 180
6 4 10 -7 10 -27 0 -43 39 -152 75 -208 89 -141 259 -232 435 -232 64 0 190
17 190 25 0 1 -42 3 -92 4 -127 2 -210 28 -277 89 -68 61 -89 127 -72 223 29
155 99 243 321 408 271 200 288 219 414 466 58 116 179 311 261 422 8 11 21
56 29 100 l14 80 1 -96 c2 -172 -39 -340 -109 -446 -19 -29 -35 -51 -37 -49
-1 1 15 38 37 82 22 43 43 93 46 109 4 17 -10 -2 -32 -45 -46 -88 -100 -171
-144 -220 l-31 -35 25 50 c29 57 68 155 62 155 -2 0 -22 -30 -44 -68 -82 -137
-197 -276 -377 -456 -155 -154 -187 -191 -215 -249 -60 -123 -38 -239 58 -312
76 -59 171 -78 257 -51 l40 12 -55 8 c-78 10 -136 39 -160 78 -27 45 -26 113
3 168 39 73 99 115 245 170 72 26 150 60 174 74 98 57 167 152 217 299 l18 52
-71 -71 c-61 -61 -91 -81 -216 -144 -80 -40 -167 -88 -193 -107 -27 -19 -51
-32 -54 -29 -8 8 47 102 76 129 14 14 61 50 105 81 87 63 124 93 146 120 13
17 10 17 -30 -3 l-45 -22 30 23 c209 157 323 378 326 631 1 77 2 79 10 37 6
-25 8 -102 7 -172 -3 -138 4 -144 25 -22 l14 79 6 -79 c29 -336 -26 -583 -163
-739 -23 -26 -55 -56 -72 -68 l-30 -22 35 46 c33 44 64 113 54 123 -2 2 -16
-14 -31 -36 -36 -54 -91 -93 -221 -156 -61 -29 -122 -62 -137 -73 -65 -52 -90
-186 -45 -251 12 -19 28 -36 36 -38 10 -3 7 5 -7 23 -41 52 -24 124 43 184 41
36 135 86 135 72 0 -6 -5 -13 -11 -17 -6 -3 -22 -30 -35 -58 -26 -56 -32 -143
-13 -193 21 -57 109 -123 164 -122 16 0 14 3 -10 16 -66 34 -105 88 -105 144
0 41 41 80 156 144 56 32 114 75 158 119 50 50 67 62 63 45 -22 -79 -39 -201
-34 -245 4 -41 39 -134 50 -134 1 0 2 30 2 68 1 53 7 79 29 123 45 91 139 208
237 295 101 90 138 138 170 222 39 104 24 296 -33 417 -10 22 -16 32 -14 22
25 -86 38 -190 33 -260 -8 -118 -41 -176 -194 -344 -69 -76 -142 -162 -161
-191 -40 -60 -52 -61 -28 -1 27 66 72 125 192 250 138 143 157 184 158 329 1
71 -4 109 -19 150 l-19 55 -7 -60 c-6 -49 -12 -64 -38 -87 -52 -46 -124 -30
-155 36 -24 50 -20 51 22 6 38 -40 64 -48 91 -31 12 8 9 15 -12 41 -41 48 -39
128 4 242 17 42 33 93 36 113 6 35 9 31 99 -142 105 -201 141 -300 151 -407
15 -181 -65 -346 -197 -405 l-45 -21 45 1 c123 1 233 96 286 248 13 36 24 84
24 105 0 34 8 47 54 96 46 48 55 63 61 108 7 52 -4 86 -60 182 -24 42 -28 121
-11 265 9 76 16 154 16 174 l1 36 14 -30 c16 -34 17 -46 0 138 -13 131 -56
244 -127 330 -28 33 -35 47 -23 47 26 0 89 -36 123 -71 35 -36 40 -33 18 10
-19 35 -70 74 -138 104 l-53 24 48 23 c26 12 47 27 47 32 0 6 -8 7 -17 3 -46
-18 -120 -17 -154 1 l-34 18 48 6 c26 3 55 14 65 24 16 16 16 17 -12 6 -56
-21 -131 21 -168 93 l-20 42 23 -21 c62 -56 148 -70 207 -34 34 21 45 38 13
20 -31 -16 -98 -12 -139 9 -20 11 -68 51 -107 91 -79 80 -124 100 -229 100
-70 1 -121 17 -176 55 -52 36 -150 65 -220 65 -51 0 -153 -16 -230 -36 -20 -5
-18 -1 13 21 38 27 45 45 10 27 -19 -10 -196 -62 -210 -62 -4 0 20 18 55 40
34 22 62 42 62 44 0 10 -188 -76 -228 -104 -38 -27 -43 -28 -37 -10 11 34 -2
23 -34 -30 -17 -28 -47 -60 -66 -71 -38 -23 -45 -59 -10 -59 12 0 25 4 31 9 5
5 20 12 34 16 l25 7 -21 -23 c-32 -37 -40 -57 -13 -33 25 23 62 44 76 44 4 0
-9 -11 -28 -24 -31 -21 -99 -110 -99 -129 0 -3 19 5 43 18 58 34 75 31 38 -6
-18 -17 -30 -40 -30 -52 2 -22 2 -22 6 1 7 36 23 25 23 -15 0 -32 30 -103 44
-103 2 0 0 17 -6 37 -16 58 4 107 70 171 l57 55 -38 -6 c-33 -5 -37 -4 -27 9
7 8 40 33 74 55 39 26 52 39 36 36 -14 -3 -38 -9 -55 -12 -28 -6 -27 -5 11 19
54 34 178 83 245 97 67 14 174 7 217 -15 18 -9 55 -48 83 -86 28 -39 55 -70
60 -70 5 0 9 -5 9 -10 0 -22 -77 23 -136 80 -33 32 -74 62 -90 65 -16 4 -35 8
-41 11 -7 2 -13 -1 -13 -6 0 -6 4 -10 9 -10 5 0 24 -12 42 -27 48 -41 69 -95
68 -178 l-1 -70 -13 71 c-25 135 -75 194 -165 194 -49 0 -148 -40 -117 -47 27
-7 20 -21 -13 -28 -31 -7 -39 -20 -17 -28 6 -2 0 -8 -15 -12 -31 -8 -38 -25
-10 -25 11 -1 7 -6 -13 -17 l-30 -17 25 -6 c21 -6 14 -9 -35 -19 -111 -23
-173 -85 -159 -157 5 -26 27 -58 78 -112 105 -113 186 -241 186 -296 0 -19 0
-19 -21 0 -12 10 -32 43 -45 72 -23 51 -132 201 -146 202 -15 0 -8 -19 17 -45
13 -15 32 -48 42 -73 9 -26 20 -49 24 -52 6 -4 89 -196 89 -206 0 -2 -4 -4 -9
-4 -15 0 -54 70 -67 120 l-13 45 0 -66 c-1 -41 -11 -101 -27 -155 -18 -60 -27
-112 -27 -161 0 -64 4 -81 42 -159 24 -48 49 -117 57 -153 16 -77 19 -191 4
-191 -5 0 -10 7 -10 16 0 9 -16 44 -35 78 -20 36 -38 84 -41 112 -4 27 -17 65
-31 85 -24 37 -47 147 -36 175 3 8 2 14 -1 14 -4 0 -19 -28 -33 -62 -27 -61
-45 -66 -24 -6 19 54 -4 17 -29 -46 -24 -60 -41 -63 -21 -4 6 17 11 40 11 51
0 17 -2 18 -16 6 -9 -8 -43 -48 -75 -90 -58 -76 -111 -129 -131 -129 -6 0 -5
8 3 19 75 106 90 130 98 158 7 26 7 31 -5 26 -10 -4 -14 4 -14 30 0 22 -6 37
-15 41 -8 3 -15 16 -16 28 0 22 -1 22 -9 3 -8 -18 -9 -18 -9 -2 -1 24 -35 90
-55 106 -21 17 -20 8 3 -37 27 -54 34 -97 21 -136 -14 -44 -33 -59 -73 -58
-39 2 -67 -6 -67 -19 0 -5 10 -9 23 -9 12 0 29 -5 37 -11 11 -8 7 -9 -16 -4
-34 7 -84 -2 -84 -15 0 -4 14 -13 30 -20 42 -18 47 -30 8 -20 -18 4 -46 11
-63 14 -29 6 -29 6 -10 -10 19 -15 17 -15 -28 -9 -38 6 -47 5 -45 -6 5 -25
-74 -15 -144 18 -147 69 -212 178 -163 273 17 33 26 36 54 19 15 -10 27 -5 73
30 51 38 89 93 75 107 -3 3 -23 -4 -46 -15 -46 -24 -62 -25 -108 -9 -28 10
-40 9 -85 -10 -62 -25 -87 -27 -113 -9 -18 14 -14 36 8 38 7 0 26 19 42 42 18
25 77 73 150 123 108 73 169 133 152 150 -3 3 -13 -8 -23 -25 -10 -17 -21 -31
-24 -31 -3 0 -6 20 -8 44 -2 37 2 49 34 87 20 24 47 61 60 81 13 20 36 43 50
50 32 15 43 38 20 38 -14 0 -76 73 -76 90 0 4 18 -2 40 -13 57 -28 62 -13 12
34 -48 46 -52 53 -17 37 13 -6 36 -28 50 -49 24 -36 65 -54 65 -29 0 21 -31
70 -43 70 -20 0 -97 92 -97 115 0 3 27 -12 61 -33 64 -41 107 -91 87 -103 -6
-4 -8 -14 -5 -24 11 -27 30 -5 23 26 -6 29 0 34 28 23 10 -4 16 -18 16 -40 0
-53 -59 -158 -60 -107 -1 12 -5 8 -14 -12 -14 -30 -91 -142 -142 -203 -14 -18
-24 -36 -20 -39 9 -10 80 62 137 138 46 63 111 119 137 119 6 0 9 7 6 15 -10
24 42 92 86 115 49 25 53 25 40 0 -8 -14 -8 -20 0 -20 6 0 15 11 20 24 5 13
18 27 30 31 12 4 19 9 17 12 -3 2 -16 -1 -29 -8 -12 -7 -27 -12 -31 -11 -4 1
-21 -5 -37 -13 -17 -9 -30 -13 -30 -10 0 2 40 36 88 74 64 50 96 84 116 121
l28 52 -23 -12 c-14 -6 -1 11 28 39 52 49 80 62 253 112 70 20 130 53 185 100
44 39 48 41 31 14 -11 -16 -35 -49 -54 -72 -19 -24 -33 -43 -31 -43 2 0 42 13
89 29 47 15 108 31 135 35 l50 6 -48 -26 c-51 -27 -59 -42 -13 -24 15 5 55 10
89 9 l62 -1 -50 -12 c-44 -11 -95 -32 -95 -39 0 -2 22 -4 49 -5 62 -2 91 -14
161 -61 108 -74 112 -75 255 -76 136 0 154 -5 234 -62 l24 -17 -16 31 c-25 48
-61 70 -166 104 -53 17 -100 34 -105 39 -4 5 5 15 22 24 50 26 44 32 -22 28
-45 -3 -72 1 -94 12 -43 22 -40 36 6 36 20 1 47 6 59 13 20 11 16 12 -35 14
-42 1 -82 11 -154 42 -53 23 -111 41 -130 41 -29 1 -30 2 -14 11 27 16 95 6
162 -25 l59 -27 -30 31 c-48 50 -119 80 -192 80 -35 0 -63 3 -63 8 0 15 85 63
140 79 30 9 50 18 43 20 -25 9 -131 -19 -202 -52 l-73 -35 6 26 c7 25 4 24
-41 -16 -45 -39 -91 -66 -100 -57 -2 2 19 23 46 46 46 39 109 117 100 125 -2
2 -29 -16 -59 -41z m-413 -200 c-52 -73 -52 -75 1 -42 57 35 161 67 141 43 -6
-8 -51 -35 -99 -60 -48 -24 -98 -56 -111 -71 l-24 -26 40 26 c37 24 150 65
220 81 l30 6 -38 -34 c-22 -20 -78 -50 -129 -71 -105 -42 -164 -79 -207 -132
-34 -41 -36 -38 -20 20 18 67 3 51 -31 -32 -18 -44 -36 -78 -40 -76 -14 8 11
128 37 182 30 60 102 147 103 124 0 -10 9 -6 28 11 39 38 115 97 125 97 5 1
-7 -20 -26 -46z m236 -54 c-16 -28 -59 -59 -80 -59 -7 0 87 89 95 90 2 0 -5
-14 -15 -31z m-565 -6 c-6 -16 -11 -70 -11 -122 l-1 -94 -20 37 c-12 20 -24
36 -27 36 -6 0 3 -66 16 -112 11 -42 -4 -33 -25 15 -25 55 -25 139 -1 192 l19
40 1 -52 c1 -29 6 -53 11 -53 6 0 10 16 10 35 0 34 23 105 34 105 3 0 0 -12
-6 -27z m-98 -238 c35 -59 40 -93 9 -55 -42 51 -79 115 -79 134 0 20 2 19 21
-4 11 -14 33 -47 49 -75z m1284 -54 c3 -4 34 -16 68 -26 78 -21 127 -46 153
-76 l20 -22 -20 7 c-11 5 -51 19 -88 32 -38 13 -83 33 -102 44 -38 23 -63 50
-47 50 6 0 13 -4 16 -9z m-1312 -73 c37 -41 42 -56 15 -45 -20 8 -81 87 -66
87 7 0 29 -19 51 -42z m971 -180 c6 -175 1 -187 -47 -123 l-27 35 20 26 c27
34 27 48 1 32 -24 -15 -53 -1 -58 28 -2 14 6 23 28 31 34 13 42 34 9 26 -20
-6 -19 -3 7 48 38 74 46 84 54 67 4 -7 10 -84 13 -170z m722 -96 c49 -36 55
-44 33 -40 -37 7 -35 -2 7 -31 94 -63 198 -204 221 -296 7 -28 4 -27 -49 25
-31 31 -93 78 -139 104 -128 75 -179 108 -174 113 2 2 26 -7 53 -20 26 -14 66
-32 88 -41 l40 -16 -45 37 c-126 103 -202 210 -216 304 l-6 44 63 -69 c35 -38
91 -90 124 -114z m-1007 106 c-2 -7 12 -15 32 -18 l35 -6 -28 -14 -27 -13 52
-29 c185 -101 376 -430 366 -630 -4 -72 -9 -65 -33 46 -36 162 -125 290 -245
351 -26 13 -52 31 -59 39 -16 19 -8 20 22 5 44 -23 -36 53 -98 92 -33 21 -58
39 -55 39 15 0 157 -43 184 -56 l31 -15 -25 22 c-30 25 -106 65 -212 109 -43
17 -78 36 -78 41 0 5 21 9 48 9 41 1 45 2 30 14 -27 20 -22 26 22 26 26 0 39
-4 38 -12z m486 -100 c13 -18 40 -61 61 -95 20 -35 40 -63 45 -63 6 0 10 -5
10 -11 0 -28 -66 43 -110 119 -49 82 -53 111 -6 50z m-555 -52 c50 -26 91 -82
90 -124 l0 -37 -17 25 c-9 14 -48 58 -87 98 -70 74 -68 80 14 38z m866 -191
c107 -179 119 -407 34 -660 -36 -108 -40 -127 -35 -185 l6 -65 -17 30 c-30 53
-22 127 25 236 67 155 73 266 24 409 -21 60 -80 181 -119 244 l-26 41 27 -24
c14 -14 42 -48 63 -78 20 -29 38 -51 40 -49 5 4 -45 109 -79 166 l-21 35 21
-20 c11 -11 37 -47 57 -80z m-336 -40 c-1 -37 -2 -36 -14 20 -17 75 -17 88 0
50 8 -16 14 -48 14 -70z m156 -35 c61 -121 81 -239 53 -307 -11 -28 -11 -28
-19 19 -4 30 -28 81 -63 139 -31 51 -56 102 -56 113 1 16 5 12 20 -16 21 -39
49 -65 37 -34 -13 32 -35 121 -41 161 l-6 40 21 -25 c12 -14 36 -54 54 -90z
m-476 69 c107 -62 180 -163 206 -286 8 -37 13 -69 11 -71 -2 -1 -19 27 -37 64
-41 81 -95 144 -153 178 -45 26 -101 84 -91 94 3 3 15 -4 28 -15 44 -40 51
-35 10 8 -65 68 -58 76 26 28z m535 -110 c48 -95 72 -196 62 -263 -6 -39 -52
-126 -67 -126 -3 0 3 26 14 58 32 96 17 210 -52 371 -17 40 -31 76 -31 80 1
14 33 -39 74 -120z m366 -6 c62 -55 120 -141 149 -219 41 -109 36 -112 -30
-22 -35 47 -101 135 -146 195 -46 59 -83 111 -83 116 0 14 56 -21 110 -70z
m123 -5 c31 -25 106 -118 94 -118 -2 0 -37 33 -78 73 -41 40 -85 81 -99 90
-24 17 -23 17 10 1 19 -9 52 -30 73 -46z m-1033 -13 c65 -33 120 -82 136 -122
26 -62 17 -68 -33 -22 -27 24 -64 55 -84 68 -44 30 -96 101 -74 101 3 0 28
-11 55 -25z m637 -58 c23 -68 23 -180 -1 -225 -22 -43 -29 -37 -15 14 14 47 6
169 -15 237 -20 68 6 45 31 -26z m291 -152 c34 -27 59 -51 57 -53 -2 -2 -23 7
-47 19 l-43 22 35 -39 c72 -81 141 -219 140 -282 -1 -23 -21 3 -71 95 -22 39
-69 106 -105 149 -69 83 -108 154 -120 219 l-7 40 50 -60 c28 -33 78 -82 111
-110z m-858 29 c85 -97 111 -263 61 -395 -23 -60 -52 -97 -103 -131 -53 -36
-69 -36 -35 0 32 33 49 85 40 121 -3 14 -41 100 -83 191 -103 220 -116 259
-81 241 25 -14 65 -79 145 -236 52 -102 66 -139 66 -175 1 -37 2 -42 11 -26
23 38 5 121 -49 228 -45 88 -93 208 -92 227 0 3 16 -21 35 -54 39 -68 45 -61
15 17 -11 29 -20 57 -20 61 0 13 54 -29 90 -69z m-155 -219 c85 -149 108 -213
93 -258 -15 -41 -25 -41 -32 2 -3 21 -21 60 -40 87 -19 27 -49 70 -67 96 -18
27 -34 46 -37 44 -2 -2 6 -26 17 -52 l21 -47 -21 19 c-42 37 -69 112 -69 194
0 41 5 93 11 114 l11 39 17 -50 c9 -28 53 -112 96 -188z m-1232 105 c73 -80
96 -165 62 -230 -16 -32 -29 -37 -41 -19 -6 11 -74 267 -74 281 0 18 20 6 53
-32z m2231 -120 c60 -88 114 -196 103 -206 -12 -13 -177 264 -177 298 0 16 8
6 74 -92z m-1905 -180 c132 -44 144 -47 115 -25 -10 8 -14 15 -8 15 27 1 93
-83 108 -140 l7 -25 -20 25 -21 25 -1 -40 -1 -40 -13 40 c-7 22 -13 32 -14 23
-1 -24 -18 -23 -31 2 -14 26 -33 26 -25 0 4 -11 8 -35 10 -53 l4 -32 -19 25
c-21 27 -27 21 -10 -11 7 -13 7 -19 1 -19 -6 0 -19 17 -30 38 -14 25 -20 31
-21 18 0 -27 -11 -13 -20 26 l-7 33 -13 -27 c-10 -22 -16 -25 -27 -17 -15 14
-17 5 -3 -21 5 -10 7 -26 4 -35 -10 -26 -24 2 -24 48 0 34 -2 38 -20 32 -17
-5 -20 -2 -21 22 l-1 28 -7 -25 c-9 -31 3 -70 42 -133 16 -26 27 -50 24 -53
-2 -3 -21 14 -42 38 l-37 43 7 -34 c5 -23 4 -31 -4 -27 -6 4 -14 25 -17 47 -5
29 -10 37 -17 30 -8 -8 -8 -23 -1 -50 9 -31 8 -38 -2 -34 -23 9 -66 94 -66
131 0 21 -3 31 -5 25 -8 -21 -23 -15 -23 10 0 18 -2 19 -10 7 -13 -20 -12 -6
4 63 7 32 22 67 32 78 25 28 67 22 223 -31z m743 -150 c41 -73 54 -121 40
-146 -8 -14 -11 -11 -20 15 -6 17 -31 56 -57 87 -25 31 -45 61 -45 67 0 8 4 7
12 -1 23 -23 26 -12 8 26 -21 43 -35 125 -25 143 5 7 17 -17 30 -57 12 -38 38
-98 57 -134z m134 95 c21 -46 25 -70 25 -142 0 -130 -44 -246 -108 -288 l-28
-18 20 29 c71 107 96 219 77 346 -7 46 -15 93 -18 106 -11 41 7 23 32 -33z
m-636 15 c27 -5 31 -9 17 -15 -22 -9 -56 0 -87 25 l-25 20 30 -11 c17 -7 46
-15 65 -19z m381 -67 c5 -28 23 -70 40 -92 36 -51 37 -62 3 -30 -47 43 -90
177 -68 211 7 9 10 6 11 -12 2 -14 8 -48 14 -77z m906 -25 c-2 -18 -4 -4 -4
32 0 36 2 50 4 33 2 -18 2 -48 0 -65z m633 -72 c36 -70 38 -109 8 -156 l-22
-35 -12 95 c-7 52 -21 119 -33 149 l-20 54 25 -24 c13 -12 38 -50 54 -83z
m-1621 0 c42 -127 44 -237 5 -314 -31 -62 -80 -105 -151 -132 -103 -39 -110
-35 -32 18 88 59 126 105 146 172 12 42 12 56 -2 108 -16 64 -21 242 -6 242 5
0 23 -42 40 -94z m82 -23 c39 -63 51 -106 47 -173 l-3 -55 -21 40 c-39 74 -82
235 -62 235 4 0 22 -21 39 -47z m-160 -175 l-9 -33 -1 45 c0 25 3 63 7 85 l7
40 3 -52 c2 -28 -1 -66 -7 -85z m1196 -158 c5 -32 6 -33 14 -12 12 32 22 27
14 -8 -4 -20 -3 -30 5 -30 7 0 -19 -34 -56 -75 -37 -42 -68 -74 -70 -72 -2 2
8 37 22 78 14 41 30 123 37 184 l12 110 8 -70 c4 -38 10 -86 14 -105z m-1314
129 c-10 -16 -60 -76 -112 -132 -109 -119 -155 -185 -171 -246 -16 -60 -24
-44 -11 22 19 87 74 169 195 283 60 57 111 104 113 104 2 0 -4 -14 -14 -31z
m-353 -19 c0 -5 -4 -10 -9 -10 -4 0 -50 -39 -101 -87 -93 -87 -109 -89 -58 -6
39 66 168 144 168 103z m140 -61 c-54 -50 -54 -50 -13 -25 57 35 64 33 23 -6
-54 -53 -105 -141 -135 -233 -22 -66 -31 -83 -38 -70 -5 10 -5 40 2 78 6 33 9
62 7 64 -10 10 -55 -42 -66 -79 l-14 -43 -4 33 c-6 58 25 125 87 194 52 56
169 139 196 138 5 -1 -15 -24 -45 -51z m-184 -37 c-64 -63 -99 -115 -117 -172
-6 -22 -7 -20 -8 13 -2 66 53 151 127 198 73 46 72 34 -2 -39z m380 -9 c-8
-16 -25 -37 -38 -48 -56 -50 -59 -46 -8 13 30 34 56 62 57 62 2 0 -3 -12 -11
-27z m136 -157 c-97 -105 -169 -221 -203 -326 -15 -47 -18 -51 -18 -24 -2 97
97 281 191 355 66 52 80 50 30 -5z"/>
<path d="M1361 2704 c0 -11 3 -14 6 -6 3 7 2 16 -1 19 -3 4 -6 -2 -5 -13z"/>
<path d="M1535 2701 c33 -9 71 -23 85 -30 l25 -12 -24 19 c-28 23 -87 42 -122
41 -13 0 3 -8 36 -18z"/>
<path d="M1418 2692 c-16 -9 -28 -22 -28 -29 0 -19 9 -16 47 17 37 32 25 40
-19 12z"/>
<path d="M1324 2647 c2 -27 9 -54 15 -60 22 -22 22 3 2 55 l-22 53 5 -48z"/>
<path d="M1357 2667 c-4 -11 0 -30 10 -47 14 -24 14 -33 3 -59 -7 -18 -25 -38
-39 -46 -14 -8 -20 -14 -12 -15 11 0 11 -3 2 -14 -11 -13 -6 -14 30 -11 25 2
46 10 51 19 5 9 18 16 29 16 11 0 40 12 64 26 32 18 55 25 81 22 21 -2 39 2
41 8 4 13 -28 24 -69 24 -30 0 -49 19 -21 21 36 2 -32 17 -82 18 -57 1 -71 8
-77 36 -3 19 -4 19 -11 2z m123 -93 c11 -12 10 -18 -3 -31 -17 -18 -47 -11
-47 11 0 9 8 13 23 10 12 -2 16 -2 10 2 -15 7 -17 24 -4 24 5 0 14 -7 21 -16z"/>
<path d="M1622 2623 c21 -20 40 -34 44 -30 8 8 -50 67 -68 67 -7 0 4 -17 24
-37z"/>
<path d="M1246 2628 c-17 -26 -31 -78 -22 -78 9 0 48 91 42 97 -2 3 -11 -6
-20 -19z"/>
<path d="M1634 2463 c-16 -56 -32 -93 -45 -103 -4 -3 -16 -24 -28 -47 -21 -41
-37 -59 -25 -28 5 13 2 14 -19 6 -14 -5 -28 -7 -32 -3 -4 4 -6 0 -3 -8 3 -9
19 -16 40 -18 29 -2 41 3 68 30 44 43 80 123 80 175 0 63 -17 61 -36 -4z"/>
<path d="M1468 2493 c-16 -2 -28 -9 -28 -14 0 -13 19 -11 55 6 30 13 23 16
-27 8z"/>
<path d="M1228 2443 c-16 -20 -28 -43 -28 -51 0 -13 37 31 64 76 16 27 -11 9
-36 -25z"/>
<path d="M1747 2463 c-16 -4 -15 -6 5 -22 23 -19 33 -53 15 -50 -25 4 -48 -13
-42 -32 8 -24 -13 -62 -30 -55 -9 3 -12 0 -9 -9 3 -7 -3 -16 -15 -20 -11 -3
-25 -21 -32 -43 -6 -20 -16 -43 -22 -50 -5 -7 -7 -16 -3 -19 4 -4 11 -1 16 7
7 10 10 11 10 3 0 -7 4 -13 9 -13 5 0 7 10 4 23 -4 21 -4 22 11 3 16 -19 16
-19 16 5 0 36 20 53 36 31 12 -15 13 -14 14 11 0 26 19 40 21 15 0 -7 5 -2 10
11 5 13 7 32 4 42 -4 12 -1 19 6 19 8 0 10 -17 6 -62 -4 -50 -3 -59 6 -43 6
11 11 53 11 94 0 67 1 71 13 45 12 -29 12 -29 13 -4 0 14 -7 35 -15 46 -8 12
-12 24 -9 27 7 7 -14 47 -24 46 -4 -1 -15 -3 -25 -6z"/>
<path d="M1225 2280 c5 -8 27 -37 48 -65 51 -64 79 -127 77 -173 -4 -75 -1
-90 20 -95 24 -6 50 16 50 43 0 38 -41 146 -68 176 -37 43 -138 133 -127 114z"/>
<path d="M2433 1407 c-36 -74 -135 -172 -215 -212 -84 -42 -60 -48 27 -7 34
16 82 52 111 81 50 51 109 150 102 171 -2 6 -13 -9 -25 -33z"/>
</g>
</svg>
