<?xml version="1.0" standalone="no"?>
<!DOCTYPE svg PUBLIC "-//W3C//DTD SVG 20010904//EN"
 "http://www.w3.org/TR/2001/REC-SVG-20010904/DTD/svg10.dtd">
<svg version="1.0" xmlns="http://www.w3.org/2000/svg"
 width="2491.000000pt" height="2976.000000pt" viewBox="0 0 2491.000000 2976.000000"
 preserveAspectRatio="xMidYMid meet">
<metadata>
Created by potrace 1.16, written by Peter Selinger 2001-2019
</metadata>
<g transform="translate(0.000000,2976.000000) scale(0.100000,-0.100000)"
fill="#000000" stroke="none">
<path d="M5720 29749 c-1545 -70 -2872 -613 -3869 -1584 -427 -416 -758 -845
-1073 -1393 -742 -1288 -951 -2587 -627 -3886 89 -356 222 -707 406 -1076 141
-283 265 -494 452 -772 191 -285 196 -304 126 -533 -124 -407 -182 -823 -157
-1131 34 -409 166 -713 431 -987 125 -129 213 -204 457 -389 335 -254 437
-372 480 -555 23 -98 13 -186 -46 -393 -223 -793 -379 -1598 -464 -2400 -53
-493 -61 -663 -61 -1300 0 -589 4 -699 40 -1095 183 -1982 892 -3833 2073
-5410 699 -933 1575 -1783 2571 -2494 583 -417 1132 -745 1821 -1090 728 -364
1439 -650 2238 -902 l163 -51 28 -57 c16 -31 57 -95 91 -144 358 -502 1023
-593 1600 -220 47 31 109 76 138 101 63 53 66 50 76 -46 28 -295 182 -700 383
-1007 407 -622 990 -983 1497 -926 57 6 137 21 177 32 105 28 260 108 359 184
193 149 181 147 376 48 257 -130 453 -179 689 -170 175 6 262 28 410 102 274
137 432 341 580 748 9 26 28 55 41 63 22 15 32 13 166 -34 424 -148 771 -143
1078 14 199 102 360 274 465 497 108 230 155 482 141 772 -7 156 -20 250 -65
470 -42 207 -55 329 -48 465 12 248 89 379 293 499 566 332 1062 675 1529
1057 1696 1388 2960 3234 3648 5329 300 912 474 1794 554 2805 26 326 26 1316
0 1640 -69 871 -203 1617 -432 2412 -90 308 -153 491 -313 893 -248 626 -295
784 -342 1142 -133 1017 -454 2305 -818 3278 -312 835 -626 1465 -1072 2151
-332 510 -560 796 -901 1129 -800 782 -1787 1249 -2947 1395 -307 38 -431 45
-827 45 -408 0 -541 -7 -914 -51 -1700 -199 -3635 -953 -5518 -2150 -201 -128
-491 -322 -587 -393 -74 -55 -94 -61 -119 -33 -26 28 -35 62 -67 254 -34 198
-79 386 -117 486 -97 258 -255 472 -470 633 -123 93 -178 156 -229 265 -75
156 -100 301 -134 754 -62 852 -171 1230 -489 1705 -154 230 -254 356 -396
500 -484 490 -1106 757 -1875 805 -185 11 -328 11 -600 -1z m295 -589 c478
-30 881 -157 1235 -388 681 -444 1109 -1227 1270 -2325 31 -214 26 -244 -42
-272 -89 -35 -305 -46 -416 -20 -198 47 -301 175 -421 520 -115 329 -266 582
-486 813 -310 326 -680 502 -1055 502 -92 0 -254 -19 -298 -35 -8 -3 39 -48
115 -109 528 -427 931 -929 1204 -1501 147 -309 146 -338 -20 -460 -290 -214
-452 -259 -590 -167 -53 36 -95 96 -172 242 -200 381 -491 716 -788 908 -187
121 -385 189 -581 199 -116 6 -270 -3 -269 -15 0 -4 28 -25 61 -46 169 -109
419 -346 592 -563 192 -239 406 -592 529 -871 102 -232 116 -303 77 -390 -12
-25 -67 -92 -134 -161 -190 -196 -314 -378 -448 -659 l-71 -147 -26 60 c-14
33 -62 134 -107 225 -475 961 -1109 1500 -1764 1500 -73 0 -277 -24 -286 -33
-2 -2 69 -64 159 -139 591 -494 1007 -988 1262 -1503 243 -488 304 -951 178
-1349 -110 -349 -380 -605 -698 -661 -106 -18 -167 -19 -265 -1 -354 64 -639
365 -795 839 -97 297 -129 531 -129 969 -1 181 -4 328 -7 328 -13 0 -173 -175
-224 -245 -116 -157 -197 -333 -243 -528 -23 -99 -26 -134 -26 -292 -1 -205
18 -327 80 -514 44 -133 144 -338 223 -456 175 -264 428 -505 679 -647 440
-249 886 -277 1274 -80 139 71 218 131 358 271 139 140 216 243 335 452 92
160 112 178 173 158 20 -7 61 -27 90 -45 351 -224 813 -286 1318 -179 603 129
1081 479 1252 915 48 123 48 126 6 140 -49 17 -112 0 -199 -55 -285 -177 -676
-321 -1045 -387 -168 -29 -471 -32 -569 -5 -220 60 -368 212 -428 437 -25 91
-24 334 0 448 37 168 107 342 192 474 65 101 257 337 352 432 354 358 848 612
1353 698 164 27 430 29 569 4 522 -95 842 -429 943 -982 29 -160 31 -541 4
-739 -91 -674 -359 -1251 -855 -1845 -382 -456 -1005 -981 -1688 -1420 -73
-47 -132 -88 -133 -92 0 -13 142 -38 222 -38 110 0 225 26 451 99 224 73 304
89 366 71 95 -25 131 -95 152 -288 50 -466 -180 -931 -645 -1304 -610 -489
-1560 -819 -2591 -898 -181 -14 -623 -14 -790 0 -1025 85 -1722 456 -1969
1047 -113 269 -133 546 -65 908 35 187 71 233 175 222 57 -6 106 -26 359 -145
285 -134 419 -169 620 -159 133 7 219 28 235 57 25 47 -26 105 -285 323 -299
253 -437 378 -620 561 -557 559 -966 1181 -1249 1898 -141 358 -211 616 -263
973 -25 172 -25 735 0 915 94 672 319 1266 709 1878 903 1417 2548 2503 4023
2657 246 25 351 28 560 15z m11755 -3685 c346 -53 665 -154 995 -315 709 -345
1244 -873 1479 -1458 225 -560 166 -1118 -167 -1585 -81 -113 -165 -150 -249
-108 -24 11 -106 71 -183 132 -864 685 -1856 1128 -2900 1293 -384 61 -646 79
-1070 75 -612 -5 -566 -6 -604 16 -19 11 -43 38 -55 60 -19 36 -21 55 -19 205
4 339 87 621 256 869 115 170 346 369 567 489 336 183 807 300 1395 346 107 8
454 -4 555 -19z m-3833 -4050 c40 -4 117 -17 171 -30 522 -126 1003 -576 1312
-1228 36 -75 68 -137 71 -137 8 0 26 82 40 185 14 109 7 298 -20 520 -29 243
-32 295 -21 355 12 63 35 99 75 119 24 12 57 12 204 2 861 -59 1557 -273 2126
-654 199 -133 246 -183 231 -243 -5 -18 -69 -89 -186 -204 -184 -181 -266
-282 -411 -502 -73 -111 -80 -127 -76 -161 5 -40 31 -77 53 -77 6 0 36 16 65
36 98 66 542 209 809 261 104 20 178 27 322 30 266 7 387 -13 614 -102 223
-89 311 -143 430 -266 81 -85 117 -136 167 -234 112 -224 167 -513 167 -885
l0 -165 25 38 c58 84 149 98 266 41 67 -33 97 -60 324 -289 138 -139 270 -265
294 -281 44 -29 45 -29 215 -30 152 -1 177 -3 229 -23 182 -71 307 -350 276
-617 -24 -217 -170 -508 -361 -721 -89 -99 -184 -187 -393 -363 -378 -318
-538 -513 -628 -765 -46 -129 -60 -225 -54 -379 8 -245 61 -377 262 -655 14
-19 25 -47 25 -64 0 -17 -25 -77 -59 -141 -153 -287 -222 -531 -223 -786 -1
-218 41 -399 137 -591 l47 -93 -11 -181 c-38 -611 -209 -1087 -555 -1550 -114
-152 -407 -447 -571 -573 -384 -297 -828 -531 -1397 -738 -514 -187 -1218
-349 -1883 -434 l-170 -22 -90 -58 c-220 -142 -429 -238 -691 -319 -809 -247
-1678 -236 -2479 34 -723 243 -1324 675 -1748 1257 -114 157 -196 297 -332
573 -191 387 -384 695 -765 1220 -317 437 -482 668 -568 800 -445 675 -664
1248 -722 1893 -16 175 -8 646 14 802 83 587 268 1032 550 1328 153 159 324
271 511 334 65 21 78 31 181 133 224 223 340 433 377 681 17 110 27 131 75
143 233 62 290 85 402 161 74 50 166 150 223 241 177 284 224 711 142 1279
-56 388 -89 984 -65 1177 46 370 196 630 475 819 l83 56 104 -50 c56 -28 166
-85 243 -126 173 -93 262 -122 435 -141 216 -24 280 -69 280 -195 0 -30 -4
-72 -9 -92 -8 -36 -4 -33 92 68 337 353 710 552 1092 584 88 7 106 7 252 -5z
m-5082 -1195 c158 -50 313 -153 421 -279 55 -66 64 -87 64 -155 0 -98 -50
-218 -193 -460 -38 -66 -89 -159 -112 -208 l-42 -88 -91 108 c-112 134 -179
183 -257 190 -90 7 -139 -25 -137 -90 0 -15 30 -88 66 -161 100 -202 136 -362
136 -610 0 -158 -7 -232 -57 -592 -32 -230 -36 -285 -37 -480 -1 -171 3 -246
18 -335 10 -63 18 -151 18 -195 1 -132 -28 -186 -188 -354 -92 -97 -99 -102
-106 -80 -4 13 -89 411 -188 884 -100 473 -194 918 -210 989 -40 173 -44 210
-30 285 20 110 59 196 187 409 254 423 307 586 305 932 -2 220 8 254 83 302
27 17 44 19 155 15 91 -4 144 -11 195 -27z m15139 -4164 c62 -205 108 -472
160 -931 54 -473 74 -797 82 -1285 38 -2242 -540 -4270 -1733 -6090 -367 -559
-782 -1085 -1285 -1627 -214 -231 -249 -258 -308 -233 -38 16 -56 41 -185 255
-551 919 -1282 1743 -2213 2493 -96 77 -174 143 -173 147 0 4 89 45 198 90
594 245 934 427 1238 662 126 97 286 253 375 364 122 153 169 195 230 208 55
12 69 11 215 -19 175 -35 271 -45 465 -44 206 0 311 10 502 50 736 154 1465
671 1951 1385 288 423 468 873 544 1359 28 178 25 581 -5 750 -47 262 -109
455 -219 675 -111 225 -331 528 -444 613 -24 19 -48 43 -53 53 -16 34 11 90
100 209 286 382 417 669 475 1044 l12 79 19 -48 c10 -26 34 -98 52 -159z
m-20970 -506 c112 -311 248 -677 300 -813 594 -1541 1248 -2910 2004 -4192 91
-154 174 -305 185 -335 24 -65 28 -185 8 -245 -7 -22 -80 -175 -162 -340 -154
-311 -251 -528 -459 -1020 -233 -551 -479 -1085 -500 -1085 -21 0 -304 425
-482 725 -1074 1808 -1593 4123 -1412 6310 30 370 84 768 150 1110 37 189 112
524 122 539 3 5 13 -13 23 -40 10 -27 110 -303 223 -614z m19536 -914 c314
-57 650 -333 815 -670 64 -130 98 -243 119 -393 56 -399 7 -832 -139 -1229
-87 -239 -268 -562 -425 -759 -92 -116 -290 -315 -405 -408 -271 -219 -590
-380 -910 -458 -205 -50 -319 -63 -545 -63 -343 1 -422 30 -422 154 0 66 50
172 126 265 97 120 129 208 161 445 45 332 57 407 80 479 41 130 72 167 195
231 250 131 347 233 505 535 136 260 224 370 368 459 147 92 364 153 627 176
75 7 134 17 148 26 54 35 5 138 -100 206 -96 62 -163 81 -364 103 -172 19
-210 29 -246 65 -34 35 -35 57 -3 157 39 127 46 170 55 338 5 88 14 176 21
195 27 79 91 131 182 150 59 11 73 11 157 -4z m-14305 -7321 c39 -8 111 -35
161 -59 207 -103 357 -306 448 -610 50 -166 69 -286 61 -381 -26 -319 -104
-614 -230 -870 -195 -399 -492 -694 -936 -933 -134 -72 -163 -70 -249 16 -62
63 -189 155 -431 314 -341 225 -493 362 -540 488 -45 120 -33 406 26 635 153
590 648 1158 1175 1350 170 62 367 81 515 50z m8280 -1065 c1125 -82 2132
-491 2927 -1189 144 -126 177 -164 185 -214 11 -71 -27 -111 -211 -219 -66
-39 -240 -146 -386 -236 -146 -91 -319 -196 -385 -234 -135 -77 -200 -135
-244 -217 -39 -73 -75 -201 -92 -321 -16 -120 -16 -463 0 -760 40 -703 -96
-1164 -386 -1307 -129 -64 -271 -58 -428 17 -293 140 -552 490 -704 949 -173
523 -184 1145 -30 1765 34 141 34 137 10 167 l-19 24 -44 -21 c-345 -169 -558
-705 -558 -1408 0 -561 131 -1092 346 -1398 52 -75 56 -84 66 -166 35 -279
-151 -543 -457 -648 -71 -25 -95 -28 -210 -28 -151 -1 -226 17 -334 81 -91 54
-157 124 -251 264 -344 515 -481 1207 -409 2074 31 382 154 1141 204 1259 20
46 23 123 6 153 -26 50 -92 39 -155 -26 -52 -53 -174 -251 -261 -422 -184
-363 -291 -713 -351 -1149 -21 -158 -30 -571 -15 -740 40 -458 149 -863 337
-1245 86 -175 85 -204 -4 -249 -74 -38 -348 -30 -523 14 -461 118 -784 535
-927 1201 -100 461 -108 1098 -22 1698 53 362 152 763 251 1004 15 39 27 73
25 75 -6 6 -106 -47 -168 -89 -371 -252 -608 -752 -658 -1389 -6 -80 -16 -167
-22 -195 -76 -355 -625 -789 -978 -773 -68 3 -88 8 -174 51 -233 116 -378 338
-441 677 -94 509 41 1308 320 1885 352 729 1048 1081 1770 895 167 -43 297
-98 454 -193 112 -67 139 -67 252 -2 387 224 873 404 1349 499 212 43 388 66
685 89 100 8 534 6 660 -3z"/>
<path d="M17285 25076 c-55 -18 -141 -62 -324 -168 -176 -102 -464 -247 -591
-298 -140 -55 -386 -179 -451 -226 -105 -78 -121 -155 -62 -304 42 -107 162
-340 188 -366 50 -50 100 -25 300 149 368 320 485 413 634 501 162 96 287 119
360 67 17 -12 48 -52 70 -89 22 -37 104 -165 183 -284 78 -120 156 -238 172
-264 16 -25 47 -57 69 -72 36 -24 50 -27 126 -27 104 1 156 21 388 150 163 91
311 155 379 162 36 4 46 0 78 -27 82 -72 123 -189 196 -556 89 -450 121 -553
195 -631 42 -44 45 -45 92 -40 104 12 391 79 442 104 43 21 57 34 73 69 16 38
17 50 7 86 -37 140 -652 1481 -706 1540 -78 86 -226 63 -489 -78 -447 -239
-529 -264 -614 -187 -23 20 -59 68 -82 107 -372 647 -457 738 -633 682z"/>
<path d="M13905 20570 c-179 -20 -370 -77 -538 -161 -202 -102 -351 -212 -533
-393 -382 -383 -654 -922 -784 -1553 -90 -434 -60 -912 95 -1520 40 -156 52
-188 119 -316 41 -78 82 -169 91 -201 25 -86 17 -185 -22 -268 -39 -84 -72
-101 -200 -106 -121 -5 -224 21 -368 92 -336 167 -572 502 -654 930 -22 113
-41 292 -41 388 0 148 -130 165 -331 46 -260 -156 -524 -462 -684 -793 -107
-221 -152 -390 -162 -607 -9 -211 22 -386 98 -558 29 -64 38 -75 99 -115 87
-58 196 -174 238 -252 18 -34 42 -97 54 -140 19 -70 20 -98 17 -273 -7 -377
-3 -507 20 -595 64 -240 217 -434 481 -606 165 -108 191 -119 272 -122 92 -3
134 -25 166 -87 27 -54 29 -162 7 -345 -22 -174 -31 -794 -16 -1020 33 -492
105 -837 271 -1302 153 -426 311 -686 576 -944 352 -342 802 -553 1334 -625
168 -23 490 -23 660 0 410 55 784 193 1115 412 520 343 849 649 1195 1109 129
172 200 280 345 520 134 222 156 245 234 245 26 0 89 -11 141 -24 150 -38 272
-49 458 -43 240 8 387 43 562 133 240 124 377 295 440 550 32 130 52 169 100
201 38 27 72 28 237 12 204 -21 410 20 567 113 88 52 210 168 274 261 232 337
310 845 211 1372 -19 102 -70 277 -105 360 l-14 35 -54 -53 c-224 -224 -626
-400 -1076 -469 -132 -20 -455 -17 -560 5 -140 30 -226 71 -296 141 -78 78
-98 133 -92 250 11 209 161 355 428 415 102 23 189 66 346 169 503 331 870
913 1058 1680 67 271 95 490 112 862 17 386 -89 777 -293 1088 -121 183 -351
383 -547 476 -496 234 -1075 158 -1557 -206 -214 -162 -448 -438 -561 -661
-63 -126 -198 -481 -273 -717 -42 -135 -80 -248 -84 -253 -4 -4 -299 96 -657
222 l-649 230 1 43 c1 25 22 141 47 259 78 364 101 523 118 806 18 299 -10
616 -77 863 -150 553 -502 922 -976 1020 -108 23 -277 31 -383 20z m366 -418
c251 -66 427 -216 543 -463 40 -84 83 -215 101 -306 l6 -32 -93 34 c-150 53
-244 69 -403 69 -161 0 -259 -20 -407 -84 -399 -171 -755 -646 -923 -1229 -75
-263 -98 -437 -99 -766 l-1 -260 -30 -60 c-36 -73 -254 -295 -290 -295 -28 0
-44 19 -88 100 -83 152 -152 385 -183 615 -22 171 -23 509 0 695 117 964 605
1738 1226 1944 61 20 150 43 198 51 120 20 342 13 443 -13z m328 -877 c131
-35 245 -127 300 -245 51 -108 64 -272 30 -393 l-10 -38 -32 21 c-105 69 -220
113 -335 130 -195 29 -422 -66 -570 -238 -70 -82 -122 -162 -181 -280 -68
-136 -104 -245 -141 -432 -42 -212 -57 -274 -91 -355 -29 -68 -32 -72 -122
-132 -103 -70 -133 -83 -183 -83 -26 0 -44 8 -66 30 -34 35 -33 3 -9 320 36
460 153 827 362 1139 76 114 225 272 334 353 98 73 294 171 395 197 91 24 242
27 319 6z m4091 -585 c369 -106 608 -477 686 -1061 20 -148 22 -492 5 -649
-108 -974 -575 -1732 -1176 -1909 -84 -24 -183 -41 -246 -41 l-46 0 -28 66
c-66 154 -58 181 93 338 214 222 320 370 437 611 187 382 266 815 237 1298
-20 332 -54 494 -139 667 -37 76 -61 109 -122 170 -140 139 -286 193 -584 216
-64 5 -83 10 -108 32 l-31 25 59 34 c183 106 387 185 567 219 103 20 301 12
396 -16z m-727 -459 c198 -79 323 -193 417 -381 79 -160 108 -289 117 -525 9
-268 -24 -514 -107 -800 -89 -303 -205 -550 -374 -790 -104 -149 -131 -175
-182 -175 -37 0 -50 7 -97 50 -96 88 -120 178 -77 293 11 30 76 147 144 260
213 357 264 519 281 897 5 111 3 163 -9 222 -50 256 -218 466 -418 523 -69 20
-191 23 -248 5 -86 -25 -205 0 -216 47 -21 81 134 227 350 329 175 82 293 95
419 45z m-3383 -63 c78 -40 110 -109 110 -239 0 -101 -21 -165 -72 -224 -56
-64 -124 -95 -206 -95 -133 0 -195 77 -195 240 0 103 13 153 56 216 73 109
206 153 307 102z m2898 -950 c63 -42 77 -83 77 -223 0 -106 -3 -125 -23 -163
-54 -101 -149 -162 -252 -162 -69 0 -106 15 -144 60 -53 64 -73 225 -40 322
53 157 260 246 382 166z m-2448 -152 c556 -75 1093 -349 1549 -791 458 -444
762 -1005 821 -1517 16 -132 8 -384 -15 -488 -117 -532 -520 -912 -1176 -1106
-264 -78 -460 -101 -784 -91 -874 27 -1583 334 -2200 952 -200 199 -315 368
-404 590 -90 225 -125 413 -124 670 0 221 20 353 79 537 186 577 630 984 1244
1139 63 16 155 41 205 54 78 21 213 46 310 58 81 10 400 5 495 -7z m-3097
-3751 c114 -225 254 -412 449 -600 143 -138 267 -227 433 -309 227 -112 390
-154 631 -163 198 -7 306 5 512 58 84 21 175 39 203 39 88 0 116 -24 231 -200
172 -261 378 -444 653 -580 232 -115 437 -164 685 -163 120 0 178 5 257 21
199 43 383 123 523 229 39 29 73 53 75 53 2 0 -34 -80 -81 -177 -156 -327
-261 -475 -370 -529 -64 -31 -70 -31 -409 17 -1412 199 -2534 616 -3555 1323
-205 142 -257 192 -311 301 -78 158 -87 353 -29 635 16 80 30 148 30 153 1 24
22 -7 73 -108z"/>
<path d="M8364 6380 c-30 -12 -62 -56 -74 -101 -18 -65 -97 -246 -161 -369
-142 -270 -337 -527 -613 -807 -99 -100 -186 -193 -193 -205 -7 -13 -12 -35
-13 -49 0 -22 5 -28 33 -33 48 -9 192 12 277 40 511 171 950 872 866 1384 -13
84 -19 98 -46 123 -32 29 -42 31 -76 17z"/>
</g>
</svg>
