<?xml version="1.0" ?><svg data-name="Layer 1" id="Layer_1" viewBox="0 0 512 512" xmlns="http://www.w3.org/2000/svg"><path d="M414.63,388.83A6.53,6.53,0,0,0,413.3,385a119.63,119.63,0,0,0-73.38-93.77,4.09,4.09,0,0,0-.49-.18,118.39,118.39,0,0,0-34.54-8.1,100.27,100.27,0,0,0,45.2-53.92H367a28.05,28.05,0,0,0,28-28V88a6.69,6.69,0,1,0-13.38,0V139.5A27.75,27.75,0,0,0,367,135.26H351.72a99.74,99.74,0,0,0-191.44,0H145a27.75,27.75,0,0,0-14.64,4.24V88A6.69,6.69,0,0,0,117,88V201a28.05,28.05,0,0,0,28,28h16.92A100.28,100.28,0,0,0,207.11,283a118.64,118.64,0,0,0-34.52,8.09c-.18.07-.36.11-.53.19A119.67,119.67,0,0,0,98.7,385a6.33,6.33,0,0,0-.8,6.42c-.3,3.46-.53,6.93-.53,10.47v39.85a6.69,6.69,0,1,0,13.37,0V401.91c0-2.16.2-4.27.33-6.39h57.09v46.24a6.69,6.69,0,0,0,13.38,0V302a105.14,105.14,0,0,1,35.25-6.15h78.43A105.32,105.32,0,0,1,330.46,302V441.76a6.69,6.69,0,0,0,13.38,0V395.52h57.09c.13,2.12.33,4.23.33,6.39v39.85a6.69,6.69,0,1,0,13.37,0V401.91c0-3.54-.23-7-.53-10.47A6.65,6.65,0,0,0,414.63,388.83ZM367,148.64a14.65,14.65,0,0,1,14.64,14.64V201A14.66,14.66,0,0,1,367,215.67H353.85a99.13,99.13,0,0,0,2-19.62V163.37a99.34,99.34,0,0,0-1.21-14.73ZM256,76.93a86.46,86.46,0,0,1,86.2,81.94H169.79A86.47,86.47,0,0,1,256,76.93Zm80.34,95.31c-10.5,12.24-34.47,31.82-80.34,31.82-46.24,0-70.07-19.56-80.47-31.82ZM145,215.67A14.66,14.66,0,0,1,130.35,201V163.28A14.65,14.65,0,0,1,145,148.64H157.4a99.34,99.34,0,0,0-1.21,14.73v32.68a99.13,99.13,0,0,0,2,19.62Zm24.57-19.62V185.42c13.85,14.17,40.39,32,86.45,32s72.58-17.85,86.43-32v10.62a86.44,86.44,0,0,1-172.88,0Zm-1.4,186.09h-55.5a106.28,106.28,0,0,1,55.5-74.37Zm175.68,0V307.76a106.3,106.3,0,0,1,55.5,74.38Z"/><path d="M305.05,347.28H279.68a6.69,6.69,0,0,0,0,13.38h25.37a6.69,6.69,0,0,0,0-13.38Z"/><path d="M305.05,375.43H279.68a6.69,6.69,0,1,0,0,13.37h25.37a6.69,6.69,0,1,0,0-13.37Z"/></svg>