<?xml version="1.0" encoding="utf-8"?>
<svg xmlns="http://www.w3.org/2000/svg" viewBox="140.1879 352.0451 120.5911 123.2037" width="120.591px" height="123.204px" preserveAspectRatio="none"><g id="Layer_1" transform="matrix(1, 0, 0, 1, 7.105427357601002e-15, 0)"><title/><path d="M 170.529 356.829 C 169.788 357.04 169.554 357.973 170.106 358.509 C 170.426 358.819 170.912 358.88 171.299 358.659 C 193.879 349.264 219.897 354.443 237.159 371.769 C 255.931 390.58 255.931 421.038 237.159 439.849 C 222.197 454.811 197.94 454.811 182.979 439.849 C 171.111 427.949 171.111 408.689 182.979 396.789 C 192.412 387.347 207.716 387.347 217.149 396.789 C 224.617 404.259 224.617 416.369 217.149 423.839 C 211.247 429.728 201.691 429.728 195.789 423.839 C 191.161 419.195 191.161 411.683 195.789 407.039 C 196.183 406.648 196.183 406.01 195.789 405.619 C 195.399 405.231 194.769 405.231 194.379 405.619 C 188.958 411.039 188.958 419.828 194.379 425.249 C 201.059 431.919 211.879 431.919 218.559 425.249 C 226.813 417.003 226.813 403.625 218.559 395.379 C 208.349 385.143 191.768 385.143 181.559 395.379 C 168.898 408.056 168.898 428.592 181.559 441.269 C 197.302 457.001 222.815 457.001 238.559 441.269 C 258.107 421.674 258.107 389.954 238.559 370.359 C 220.727 352.465 193.85 347.12 170.529 356.829 Z" style="stroke-width: 1; fill: rgb(255, 255, 255);"/><path d="M 164.439 361.909 C 164.61 361.908 164.779 361.864 164.929 361.779 C 165.809 361.289 166.709 360.779 167.609 360.359 C 168.103 360.113 168.304 359.513 168.059 359.019 C 167.813 358.525 167.213 358.323 166.719 358.569 C 165.789 359.029 164.859 359.569 163.949 360.029 C 163.271 360.394 163.243 361.356 163.899 361.76 C 164.061 361.86 164.248 361.912 164.439 361.909 Z" style="stroke-width: 1; fill: rgb(255, 255, 255);"/><path d="M 157.499 364.179 C 154.945 366.065 152.536 368.137 150.289 370.379 C 149.901 370.769 149.901 371.399 150.289 371.789 C 150.476 371.98 150.731 372.088 150.999 372.089 C 151.266 372.088 151.522 371.98 151.709 371.789 C 153.887 369.615 156.227 367.609 158.709 365.789 C 159.332 365.335 159.23 364.376 158.525 364.063 C 158.198 363.918 157.818 363.958 157.529 364.169 L 157.499 364.179 Z" style="stroke-width: 1; fill: rgb(255, 255, 255);"/><path d="M 247.889 462.659 C 247.573 462.207 246.952 462.095 246.499 462.409 C 222.492 479.21 189.882 476.324 169.199 455.569 C 150.427 436.758 150.427 406.3 169.199 387.489 C 184.16 372.527 208.417 372.527 223.379 387.489 C 235.246 399.389 235.246 418.649 223.379 430.549 C 213.94 439.968 198.657 439.968 189.219 430.549 C 181.789 423.082 181.789 411.016 189.219 403.549 C 195.117 397.661 204.67 397.661 210.569 403.549 C 215.207 408.188 215.207 415.71 210.569 420.349 C 210.211 421.03 210.725 421.844 211.494 421.813 C 211.67 421.806 211.84 421.753 211.989 421.659 C 217.399 416.234 217.399 407.454 211.989 402.029 C 205.305 395.357 194.482 395.357 187.799 402.029 C 179.561 410.281 179.561 423.646 187.799 431.899 C 198.022 442.101 214.575 442.101 224.799 431.899 C 237.448 419.217 237.448 398.69 224.799 386.009 C 209.044 370.304 183.554 370.304 167.799 386.009 C 148.25 405.604 148.25 437.324 167.799 456.919 C 189.162 478.364 222.85 481.347 247.649 463.989 C 248.061 463.675 248.166 463.097 247.889 462.659 Z" style="stroke-width: 1; fill: rgb(255, 255, 255);"/><path d="M 144.719 407.839 C 144.175 407.748 143.66 408.115 143.569 408.659 C 142.511 414.857 142.266 421.167 142.839 427.429 C 142.885 427.946 143.32 428.341 143.839 428.339 L 143.929 428.339 C 144.478 428.286 144.881 427.798 144.829 427.249 C 144.273 421.157 144.512 415.019 145.539 408.989 C 145.629 408.445 145.262 407.931 144.719 407.839 Z" style="stroke-width: 1; fill: rgb(255, 255, 255);"/><path d="M 146.589 442.439 C 146.685 442.454 146.783 442.454 146.879 442.439 C 147.41 442.28 147.71 441.719 147.549 441.189 C 146.767 438.611 146.136 435.99 145.659 433.339 C 145.524 432.569 144.606 432.234 144.007 432.735 C 143.729 432.968 143.596 433.332 143.659 433.689 C 144.153 436.417 144.8 439.114 145.599 441.769 C 145.744 442.187 146.147 442.459 146.589 442.439 Z" style="stroke-width: 1; fill: rgb(255, 255, 255);"/><path d="M 254.649 455.529 C 253.499 456.679 252.299 457.789 251.079 458.829 C 250.494 459.329 250.67 460.275 251.395 460.532 C 251.732 460.651 252.107 460.581 252.379 460.349 C 253.639 459.269 254.879 458.129 256.069 456.939 C 256.456 456.549 256.456 455.919 256.069 455.529 C 255.677 455.134 255.04 455.134 254.649 455.529 Z" style="stroke-width: 1; fill: rgb(255, 255, 255);"/><path d="M 237.069 389.519 C 237.201 389.956 237.612 390.248 238.069 390.229 C 238.525 390.248 238.937 389.956 239.069 389.519 C 239.591 387.84 240.908 386.527 242.589 386.009 C 243.022 385.873 243.309 385.462 243.289 385.009 C 243.309 384.555 243.022 384.145 242.589 384.009 C 240.907 383.488 239.59 382.171 239.069 380.489 C 238.933 380.056 238.522 379.768 238.069 379.789 C 237.615 379.768 237.204 380.056 237.069 380.489 C 236.551 382.169 235.238 383.486 233.559 384.009 C 233.121 384.141 232.829 384.552 232.849 385.009 C 232.829 385.465 233.121 385.877 233.559 386.009 C 235.237 386.526 236.551 387.84 237.069 389.519 Z M 238.069 383.149 C 238.576 383.897 239.221 384.541 239.969 385.049 C 239.223 385.559 238.579 386.203 238.069 386.949 C 237.556 386.206 236.912 385.562 236.169 385.049 C 236.9 384.535 237.53 383.891 238.029 383.149 L 238.069 383.149 Z" style="stroke-width: 1; fill: rgb(255, 255, 255);"/><path d="M 251.439 371.519 C 251.571 371.956 251.982 372.248 252.439 372.229 C 252.895 372.248 253.307 371.956 253.439 371.519 C 254.119 369.226 255.878 367.411 258.149 366.659 C 258.884 366.431 259.096 365.492 258.531 364.969 C 258.421 364.868 258.291 364.793 258.149 364.749 C 255.831 364.04 254.017 362.226 253.309 359.909 C 253.173 359.476 252.762 359.188 252.309 359.209 C 251.855 359.188 251.444 359.476 251.309 359.909 C 250.594 362.223 248.782 364.034 246.469 364.749 C 245.733 364.977 245.521 365.916 246.086 366.438 C 246.196 366.539 246.326 366.615 246.469 366.659 C 248.835 367.344 250.701 369.168 251.439 371.519 Z M 252.439 362.639 C 253.184 363.889 254.211 364.947 255.439 365.729 C 254.179 366.496 253.12 367.551 252.349 368.809 C 251.579 367.554 250.523 366.499 249.269 365.729 C 250.522 364.961 251.577 363.909 252.349 362.659 L 252.439 362.639 Z" style="stroke-width: 1; fill: rgb(255, 255, 255);"/><path d="M 146.319 378.009 C 146.103 377.27 145.168 377.041 144.636 377.597 C 144.525 377.714 144.444 377.855 144.399 378.009 C 143.884 379.689 142.569 381.004 140.889 381.519 C 140.455 381.655 140.168 382.065 140.189 382.519 C 140.168 382.972 140.455 383.383 140.889 383.519 C 142.564 384.009 143.891 385.292 144.439 386.949 C 144.654 387.688 145.589 387.916 146.121 387.36 C 146.232 387.244 146.314 387.103 146.359 386.949 C 146.873 385.266 148.188 383.948 149.869 383.429 C 150.302 383.293 150.589 382.882 150.569 382.429 C 150.589 381.975 150.302 381.565 149.869 381.429 C 148.194 380.944 146.866 379.664 146.319 378.009 Z M 145.319 384.379 C 144.817 383.633 144.179 382.988 143.439 382.479 C 144.184 381.969 144.828 381.324 145.339 380.579 C 145.852 381.322 146.496 381.966 147.239 382.479 C 146.5 382.991 145.863 383.635 145.359 384.379 L 145.319 384.379 Z" style="stroke-width: 1; fill: rgb(255, 255, 255);"/><path d="M 259.989 439.599 C 257.509 438.839 255.568 436.898 254.809 434.419 C 254.673 433.986 254.262 433.698 253.809 433.719 C 253.355 433.698 252.944 433.986 252.809 434.419 C 252.046 436.897 250.106 438.836 247.629 439.599 C 247.191 439.731 246.899 440.142 246.919 440.599 C 246.922 441.037 247.209 441.422 247.629 441.549 C 250.121 442.278 252.093 444.19 252.899 446.659 C 253.031 447.096 253.442 447.388 253.899 447.369 C 254.355 447.388 254.767 447.096 254.899 446.659 C 255.664 444.183 257.603 442.245 260.079 441.479 C 260.494 441.348 260.777 440.964 260.779 440.529 C 260.757 440.075 260.432 439.694 259.989 439.599 Z M 253.849 443.959 C 253.018 442.558 251.849 441.389 250.449 440.559 C 251.847 439.726 253.016 438.557 253.849 437.159 C 254.689 438.552 255.856 439.719 257.249 440.559 C 255.853 441.395 254.685 442.563 253.849 443.959 Z" style="stroke-width: 1; fill: rgb(255, 255, 255);"/><path d="M 167.649 431.249 C 167.517 430.812 167.105 430.519 166.649 430.539 C 166.211 430.542 165.826 430.83 165.699 431.249 C 165.179 432.93 163.861 434.244 162.179 434.759 C 161.745 434.895 161.458 435.305 161.479 435.759 C 161.458 436.212 161.745 436.623 162.179 436.759 C 163.862 437.277 165.18 438.595 165.699 440.279 C 165.829 440.694 166.213 440.977 166.649 440.979 C 167.102 441 167.513 440.712 167.649 440.279 C 168.138 438.56 169.456 437.201 171.159 436.659 C 171.596 436.527 171.888 436.115 171.869 435.659 C 171.888 435.202 171.596 434.791 171.159 434.659 C 169.503 434.161 168.194 432.889 167.649 431.249 Z M 166.649 437.619 C 166.141 436.871 165.496 436.226 164.749 435.719 C 165.494 435.209 166.138 434.564 166.649 433.819 C 167.162 434.562 167.806 435.206 168.549 435.719 C 167.814 436.245 167.183 436.903 166.689 437.659 L 166.649 437.619 Z" style="stroke-width: 1; fill: rgb(255, 255, 255);"/><path d="M 162.799 369.739 C 162.342 369.719 161.931 370.012 161.799 370.449 C 160.952 373.199 158.799 375.352 156.049 376.199 C 155.611 376.331 155.319 376.742 155.339 377.199 C 155.342 377.637 155.629 378.022 156.049 378.149 C 158.802 378.996 160.957 381.154 161.799 383.909 C 162.014 384.648 162.949 384.876 163.481 384.32 C 163.592 384.204 163.674 384.063 163.719 383.909 C 164.564 381.155 166.717 378.999 169.469 378.149 C 169.888 378.022 170.176 377.637 170.179 377.199 C 170.198 376.742 169.906 376.331 169.469 376.199 C 166.72 375.349 164.568 373.198 163.719 370.449 C 163.595 370.04 163.225 369.755 162.799 369.739 Z M 166.729 377.159 C 165.097 378.097 163.741 379.45 162.799 381.079 C 161.856 379.45 160.5 378.097 158.869 377.159 C 160.501 376.217 161.857 374.861 162.799 373.229 C 163.741 374.861 165.096 376.217 166.729 377.159 Z" style="stroke-width: 1; fill: rgb(255, 255, 255);"/></g></svg>