<?xml version="1.0" encoding="utf-8"?>
<svg xmlns="http://www.w3.org/2000/svg" viewBox="187.3283 175.3441 116.8888 125.1529" width="116.889px" height="125.153px" preserveAspectRatio="none"><g id="Layer_1" transform="matrix(1, 0, 0, 1, 7.105427357601002e-15, 0)"><title/><path d="M 206.096 214.147 C 206.179 214.158 206.263 214.158 206.346 214.147 C 206.426 214.157 206.507 214.157 206.586 214.147 C 213.982 212.325 220.698 208.417 225.936 202.887 L 226.416 202.377 C 226.536 202.255 226.622 202.103 226.666 201.937 C 227.78 197.598 227.114 192.994 224.816 189.147 C 220.149 181.5 210.361 178.766 202.406 182.887 C 190.928 188.961 190.329 205.183 201.328 212.087 C 202.802 213.013 204.411 213.704 206.096 214.137 L 206.096 214.147 Z M 195.986 193.777 C 197.077 189.856 199.736 186.556 203.336 184.657 C 205.446 183.541 207.799 182.96 210.186 182.967 C 215.458 182.952 220.355 185.694 223.096 190.197 C 225.072 193.504 225.679 197.451 224.786 201.197 L 224.486 201.517 C 219.57 206.704 213.283 210.39 206.356 212.147 C 198.403 209.96 193.749 201.717 195.986 193.777 Z" style="stroke-width: 1; fill: rgb(168, 145, 48);"/><path d="M 218.976 198.147 C 218.976 198.7 219.424 199.147 219.976 199.147 C 220.529 199.147 220.976 198.7 220.976 198.147 C 220.716 192.227 214.336 187.247 214.066 187.037 C 213.625 186.697 212.991 186.783 212.656 187.227 C 212.323 187.667 212.408 188.293 212.846 188.627 C 212.896 188.577 218.766 193.157 218.976 198.147 Z" style="stroke-width: 1; fill: rgb(168, 145, 48);"/><path d="M 240.266 221.607 C 238.473 218.603 234.59 217.611 231.576 219.387 L 218.426 227.177 C 215.405 228.968 214.411 232.87 216.206 235.887 L 222.766 246.967 C 224.556 249.982 228.451 250.976 231.466 249.187 L 244.616 241.397 C 247.628 239.615 248.626 235.73 246.846 232.717 L 240.266 221.607 Z M 245.586 237.017 C 245.304 238.137 244.583 239.095 243.586 239.677 L 230.446 247.467 C 228.386 248.685 225.728 248.005 224.506 245.947 L 222.046 241.807 L 229.766 237.237 C 230.229 236.957 230.384 236.358 230.116 235.887 C 229.842 235.417 229.242 235.253 228.766 235.517 L 221.036 240.087 L 218.696 236.147 L 231.846 228.367 C 232.321 228.086 232.478 227.472 232.196 226.997 C 231.915 226.523 231.301 226.366 230.826 226.647 L 217.766 234.397 C 216.841 232.401 217.565 230.028 219.446 228.887 L 232.596 221.097 C 234.671 219.85 237.365 220.533 238.596 222.617 L 245.166 233.727 C 245.743 234.723 245.894 235.909 245.586 237.017 L 245.586 237.017 Z" style="stroke-width: 1; fill: rgb(168, 145, 48);"/><path d="M 228.296 214.267 C 227.946 213.838 227.314 213.776 226.886 214.127 C 220.166 219.647 214.936 220.617 214.886 220.627 C 214.116 220.693 213.706 221.567 214.148 222.201 C 214.353 222.495 214.699 222.658 215.056 222.627 L 215.216 222.627 C 215.456 222.627 220.996 221.627 228.216 215.697 C 228.64 215.328 228.676 214.682 228.296 214.267 Z" style="stroke-width: 1; fill: rgb(168, 145, 48);"/><path d="M 237.316 232.777 C 235.805 233.679 235.305 235.631 236.196 237.147 C 236.635 237.89 237.357 238.421 238.196 238.617 C 238.457 238.686 238.726 238.719 238.996 238.717 C 239.567 238.717 240.127 238.562 240.616 238.267 C 241.343 237.836 241.871 237.135 242.086 236.317 C 242.291 235.488 242.15 234.611 241.696 233.887 C 240.792 232.374 238.833 231.877 237.316 232.777 Z M 240.106 235.777 C 240.031 236.086 239.832 236.35 239.556 236.507 C 239.285 236.668 238.962 236.715 238.656 236.637 C 237.767 236.418 237.449 235.318 238.083 234.658 C 238.158 234.58 238.243 234.512 238.336 234.457 C 238.519 234.344 238.731 234.285 238.946 234.287 C 239.725 234.29 240.294 235.022 240.106 235.777 Z" style="stroke-width: 1; fill: rgb(168, 145, 48);"/><path d="M 189.066 216.077 C 186.886 219.727 186.766 223.437 188.656 226.827 L 199.126 244.517 C 199.72 250.982 201.503 257.281 204.386 263.097 C 204.442 263.215 204.52 263.32 204.616 263.407 L 206.196 266.887 C 206.972 268.58 208.39 269.893 210.136 270.537 C 210.921 270.825 211.75 270.974 212.586 270.977 C 215.516 270.974 218.133 269.146 219.146 266.397 C 219.393 265.736 219.538 265.042 219.576 264.337 L 224.016 261.707 L 239.646 288.107 C 237.446 290.255 236.996 293.628 238.556 296.277 L 239.116 297.277 C 240.027 298.781 241.499 299.86 243.206 300.277 C 243.751 300.425 244.312 300.499 244.876 300.497 C 246.066 300.494 247.233 300.173 248.256 299.567 L 259.766 292.717 C 261.415 291.704 261.956 289.562 260.986 287.887 L 258.846 284.267 L 258.636 283.957 L 246.636 263.727 C 246.326 263.207 246.236 262.584 246.386 261.997 C 246.54 261.406 246.921 260.9 247.446 260.587 C 248.535 259.955 249.931 260.316 250.576 261.397 L 262.526 281.487 C 262.606 281.647 262.686 281.807 262.776 281.967 L 264.926 285.587 C 265.568 286.671 266.737 287.333 267.996 287.327 C 268.614 287.334 269.224 287.183 269.766 286.887 L 281.246 280.077 C 284.452 278.205 285.52 274.081 283.626 270.887 L 283.066 269.947 C 281.502 267.298 278.332 266.06 275.386 266.947 L 259.846 240.747 L 263.846 238.357 C 264.896 238.941 266.075 239.251 267.276 239.257 C 272.665 239.281 276.058 233.462 273.383 228.784 C 273.24 228.532 273.08 228.289 272.906 228.057 L 270.046 224.167 C 266.089 218.473 261.042 213.619 255.196 209.887 L 250.766 202.357 C 252.499 202.469 254.236 202.203 255.856 201.577 C 256.476 201.367 257.086 201.127 257.696 200.887 C 259.101 200.264 260.58 199.82 262.096 199.567 C 264.04 199.324 266.008 199.751 267.676 200.777 C 268.558 201.351 269.387 202 270.156 202.717 C 271.434 203.983 272.95 204.982 274.616 205.657 C 275.362 205.902 276.142 206.027 276.926 206.027 C 280.716 206.027 284.386 203.147 286.386 199.757 C 286.746 199.127 287.096 198.467 287.446 197.807 C 288.736 195.377 289.946 193.077 292.166 192.337 C 293.301 192.043 294.481 191.959 295.646 192.087 C 296.216 192.087 296.776 192.137 297.346 192.087 C 300.076 192.087 302.136 190.907 302.856 189.087 C 303.08 188.351 302.423 187.648 301.673 187.823 C 301.376 187.892 301.127 188.092 300.996 188.367 C 300.506 189.627 298.766 190.107 297.306 190.127 C 296.786 190.127 296.306 190.127 295.736 190.127 C 294.324 189.973 292.895 190.088 291.526 190.467 C 288.526 191.467 287.026 194.357 285.676 196.907 C 285.346 197.537 285.016 198.167 284.676 198.767 C 282.676 202.157 278.816 204.967 275.276 203.767 C 273.861 203.174 272.577 202.307 271.496 201.217 C 270.641 200.429 269.721 199.713 268.746 199.077 C 266.684 197.825 264.262 197.3 261.866 197.587 C 260.187 197.859 258.55 198.346 256.996 199.037 C 256.406 199.267 255.816 199.497 255.216 199.697 C 252.756 200.557 250.836 200.637 249.356 199.957 L 245.356 193.267 C 240.926 185.797 234.016 187.517 231.526 188.457 C 231.256 187.897 230.986 187.337 230.666 186.797 C 224.39 176.201 210.962 172.302 199.986 177.887 C 188.204 184.016 183.991 198.785 190.766 210.207 C 191.196 210.917 191.656 211.607 192.146 212.267 C 190.948 213.389 189.912 214.671 189.066 216.077 Z M 214.846 256.887 L 205.766 261.327 C 203.459 256.451 201.94 251.24 201.266 245.887 L 205.466 245.467 C 206.003 245.41 206.397 244.936 206.356 244.397 C 206.159 240.928 206.263 237.449 206.666 233.997 C 206.704 233.712 206.616 233.424 206.426 233.207 C 206.235 232.995 205.962 232.875 205.676 232.877 L 201.516 232.877 C 201.89 230.538 202.421 228.226 203.106 225.957 C 205.056 226.957 210.186 230.217 210.296 238.957 C 210.366 244.757 213.766 254.017 214.846 256.887 Z M 201.246 234.887 L 204.556 234.887 C 204.271 237.775 204.187 240.679 204.306 243.577 L 201.076 243.887 C 200.844 240.889 200.901 237.875 201.246 234.887 Z M 217.246 265.657 C 216.787 266.908 215.847 267.923 214.636 268.477 C 212.121 269.643 209.138 268.539 207.986 266.017 L 206.646 263.107 L 215.646 258.717 L 217.076 261.827 C 217.647 263.024 217.719 264.398 217.276 265.647 L 217.246 265.657 Z M 219.316 262.107 C 219.216 261.723 219.082 261.348 218.916 260.987 L 217.086 256.887 C 217.037 256.791 216.973 256.703 216.896 256.627 C 215.094 252.045 213.683 247.318 212.676 242.497 L 222.996 259.937 L 219.316 262.107 Z M 258.766 290.997 L 247.286 297.797 C 245.065 299.101 242.207 298.369 240.886 296.157 L 240.326 295.157 C 239.146 293.155 239.634 290.588 241.466 289.157 L 241.516 289.157 C 241.516 289.157 241.576 289.097 241.606 289.067 C 241.636 289.037 241.836 288.887 241.966 288.807 L 250.766 283.597 C 251.481 283.173 252.296 282.949 253.126 282.947 C 253.524 282.948 253.921 282.998 254.306 283.097 C 255.44 283.394 256.419 284.108 257.046 285.097 L 258.256 287.097 C 258.28 287.136 258.306 287.173 258.336 287.207 L 259.336 288.837 C 259.787 289.59 259.53 290.566 258.766 290.997 Z M 249.766 258.357 C 246.568 257.535 243.679 260.484 244.566 263.665 C 244.667 264.027 244.815 264.374 245.006 264.697 L 248.406 270.447 L 240.486 275.137 C 240.011 275.419 239.855 276.033 240.136 276.507 C 240.316 276.811 240.643 276.997 240.996 276.997 C 241.176 276.997 241.352 276.949 241.506 276.857 L 249.426 272.167 L 254.746 281.167 C 253.049 280.738 251.25 281.001 249.746 281.897 L 241.306 286.897 L 212.376 238.087 C 212.342 238.042 212.305 237.999 212.266 237.957 C 212.182 233.792 210.532 229.812 207.646 226.807 C 206.521 225.672 205.208 224.738 203.766 224.047 L 203.996 223.397 C 204.35 222.386 204.936 221.472 205.706 220.727 L 212.106 218.637 C 217.367 216.933 222.212 214.143 226.326 210.447 L 232.506 204.887 C 233.67 204.893 234.832 204.97 235.986 205.117 C 235.904 206.674 236.087 208.232 236.526 209.727 C 237.346 212.547 239.466 216.547 244.926 219.637 L 245.116 219.707 C 245.129 219.791 245.156 219.873 245.196 219.947 L 273.566 267.827 L 265.116 272.827 C 263.63 273.715 262.552 275.152 262.116 276.827 L 258.116 270.157 L 265.936 265.527 C 266.586 265.115 266.545 264.153 265.862 263.797 C 265.572 263.646 265.226 263.646 264.936 263.797 L 257.126 268.427 L 254.616 264.197 L 258.616 261.807 C 259.318 261.49 259.413 260.533 258.788 260.084 C 258.437 259.832 257.965 259.834 257.616 260.087 L 253.616 262.477 L 252.336 260.327 C 251.76 259.34 250.807 258.628 249.696 258.357 L 249.766 258.357 Z M 277.316 268.687 C 278.958 268.692 280.476 269.557 281.316 270.967 L 281.876 271.967 C 283.179 274.186 282.447 277.04 280.236 278.357 L 268.766 285.107 C 268.026 285.55 267.068 285.308 266.626 284.567 L 264.516 281.007 C 264.521 280.968 264.521 280.927 264.516 280.887 L 264.406 280.707 C 263.269 278.517 264.037 275.821 266.156 274.557 L 274.966 269.337 C 275.678 268.917 276.489 268.693 277.316 268.687 Z M 249.016 222.447 C 252.45 225.532 255.677 228.84 258.676 232.347 L 261.676 236.427 C 261.835 236.64 262.006 236.843 262.186 237.037 L 258.826 239.037 L 249.016 222.447 Z M 272.266 232.967 C 271.751 236.782 267.3 238.608 264.254 236.255 C 263.878 235.965 263.546 235.622 263.266 235.237 L 260.866 231.957 L 269.056 226.147 L 271.336 229.247 C 272.135 230.312 272.47 231.653 272.266 232.967 Z M 267.876 224.527 L 259.626 230.387 C 257.626 228.067 251.066 220.747 246.106 217.777 C 245.935 217.684 245.741 217.642 245.546 217.657 C 238.356 213.417 237.866 207.567 237.966 205.377 C 240.862 205.883 243.699 206.677 246.436 207.747 L 244.436 211.397 C 244.051 212.075 244.544 212.915 245.323 212.91 C 245.685 212.907 246.018 212.712 246.196 212.397 L 248.276 208.557 L 249.556 209.157 L 248.406 210.887 C 248.109 211.352 248.243 211.969 248.706 212.267 C 248.867 212.371 249.055 212.427 249.246 212.427 C 249.586 212.427 249.903 212.254 250.086 211.967 L 251.376 209.967 C 257.903 213.516 263.544 218.493 267.876 224.527 Z M 243.626 194.277 L 251.696 207.887 C 249.594 206.792 247.411 205.859 245.166 205.097 C 241.351 203.79 237.366 203.045 233.336 202.887 C 234.192 198.677 233.845 194.311 232.336 190.287 C 234.336 189.487 239.946 188.067 243.626 194.277 Z M 190.356 192.637 C 191.927 187.043 195.752 182.352 200.916 179.687 C 203.876 178.141 207.167 177.338 210.506 177.347 C 218.064 177.321 225.071 181.297 228.926 187.797 C 231.671 192.486 232.492 198.056 231.216 203.337 L 224.946 208.957 C 221.034 212.464 216.433 215.114 211.436 216.737 L 205.116 218.797 C 193.768 215.711 187.131 203.947 190.356 192.637 Z M 203.356 220.327 C 202.804 221.055 202.368 221.865 202.066 222.727 C 200.776 226.342 199.871 230.083 199.366 233.887 C 199.366 233.887 199.366 233.887 199.366 233.887 C 199.084 235.999 198.94 238.127 198.936 240.257 L 190.386 225.827 C 187.306 220.367 191.646 215.477 193.386 213.827 C 196.079 216.835 199.518 219.077 203.356 220.327 Z" style="stroke-width: 1; fill: rgb(168, 145, 48);"/><path d="M 290.126 255.127 C 290.58 255.148 290.991 254.861 291.126 254.427 C 292.16 251.081 294.78 248.461 298.126 247.427 C 298.56 247.292 298.847 246.881 298.826 246.427 C 298.847 245.974 298.56 245.563 298.126 245.427 C 294.783 244.388 292.166 241.77 291.126 238.427 C 290.994 237.99 290.583 237.698 290.126 237.717 C 289.67 237.698 289.258 237.99 289.126 238.427 C 288.084 241.768 285.467 244.385 282.126 245.427 C 281.689 245.56 281.397 245.971 281.416 246.427 C 281.397 246.884 281.689 247.295 282.126 247.427 C 285.471 248.464 288.09 251.083 289.126 254.427 C 289.262 254.861 289.673 255.148 290.126 255.127 Z M 285.016 246.437 C 287.181 245.268 288.957 243.492 290.126 241.327 C 291.3 243.493 293.079 245.268 295.246 246.437 C 293.076 247.607 291.296 249.387 290.126 251.557 C 288.96 249.388 287.183 247.608 285.016 246.437 Z" style="stroke-width: 1; fill: rgb(168, 145, 48);"/><path d="M 299.626 224.087 C 299.494 223.65 299.083 223.358 298.626 223.377 C 298.17 223.358 297.758 223.65 297.626 224.087 C 297.053 225.942 295.601 227.394 293.746 227.967 C 293.313 228.103 293.026 228.514 293.046 228.967 C 293.026 229.421 293.313 229.832 293.746 229.967 C 295.637 230.477 297.146 231.9 297.766 233.757 C 297.898 234.195 298.31 234.487 298.766 234.467 C 299.223 234.487 299.634 234.195 299.766 233.757 C 300.317 231.937 301.714 230.495 303.516 229.887 C 303.95 229.752 304.237 229.341 304.216 228.887 C 304.237 228.434 303.95 228.023 303.516 227.887 C 301.678 227.33 300.227 225.912 299.626 224.087 Z M 298.626 231.147 C 298.056 230.258 297.315 229.489 296.446 228.887 C 297.332 228.305 298.09 227.55 298.676 226.667 C 299.259 227.55 300.014 228.305 300.896 228.887 C 300.013 229.485 299.258 230.254 298.676 231.147 L 298.626 231.147 Z" style="stroke-width: 1; fill: rgb(168, 145, 48);"/><path d="M 197.036 291.167 C 197.265 291.903 198.203 292.115 198.726 291.55 C 198.827 291.44 198.902 291.31 198.946 291.167 C 199.485 289.428 200.847 288.066 202.586 287.527 C 203.024 287.395 203.316 286.984 203.296 286.527 C 203.316 286.071 203.024 285.66 202.586 285.527 C 200.845 284.992 199.482 283.629 198.946 281.887 C 198.718 281.152 197.779 280.94 197.257 281.505 C 197.156 281.615 197.08 281.745 197.036 281.887 C 196.501 283.629 195.138 284.992 193.396 285.527 C 192.959 285.66 192.667 286.071 192.686 286.527 C 192.667 286.984 192.959 287.395 193.396 287.527 C 195.136 288.066 196.498 289.428 197.036 291.167 Z M 198.036 284.567 C 198.568 285.357 199.247 286.036 200.036 286.567 C 199.245 287.097 198.565 287.776 198.036 288.567 C 197.504 287.779 196.825 287.1 196.036 286.567 C 196.808 286.029 197.473 285.35 197.996 284.567 L 198.036 284.567 Z" style="stroke-width: 1; fill: rgb(168, 145, 48);"/></g></svg>